<?xml version="1.0" standalone="no"?>
<!DOCTYPE svg PUBLIC "-//W3C//DTD SVG 20010904//EN"
 "http://www.w3.org/TR/2001/REC-SVG-20010904/DTD/svg10.dtd">
<svg version="1.0" xmlns="http://www.w3.org/2000/svg"
 width="591.000000pt" height="591.000000pt" viewBox="0 0 591.000000 591.000000"
 preserveAspectRatio="xMidYMid meet">
<metadata>
Created by potrace 1.11, written by Peter Selinger 2001-2013
</metadata>
<g transform="translate(0.000000,591.000000) scale(0.100000,-0.100000)"
fill="#000000" stroke="none">
<path d="M0 3519 l0 -2392 298 294 c164 162 358 344 431 404 816 677 1571 795
2506 392 90 -39 329 -158 483 -242 56 -30 102 -53 102 -51 0 3 -49 102 -108
219 -297 584 -416 986 -416 1402 0 389 110 736 351 1108 168 261 307 421 767
885 l369 372 -2391 0 -2392 0 0 -2391z"/>
<path d="M5174 5278 c-347 -348 -673 -682 -724 -742 -334 -393 -533 -759 -610
-1121 -27 -130 -37 -376 -20 -511 44 -358 214 -718 513 -1093 56 -69 209 -235
341 -369 l240 -243 -181 -181 -182 -182 -223 220 c-234 230 -357 338 -523 459
-282 205 -570 339 -856 397 -162 32 -445 32 -599 -1 -395 -85 -776 -295 -1185
-655 -44 -38 -324 -313 -622 -610 l-543 -541 0 -52 0 -53 2955 0 2955 0 0
2955 0 2955 -53 0 -53 0 -630 -632z"/>
</g>
</svg>
